<svg width="24" height="24" viewBox="0 0 24 24" fill="none" xmlns="http://www.w3.org/2000/svg">
<path d="M12 20.396L4.71802 16.192V7.783L12 11.987V20.396Z" fill="white" fill-opacity="0.3"/>
<path d="M12 20.364L19.245 16.181V7.815L12 11.998V20.364Z" fill="white" fill-opacity="0.1"/>
<path d="M12.0001 12.001L4.69409 7.783L12.0001 3.565L19.3061 7.783L12.0001 12.001Z" fill="white" fill-opacity="0.7"/>
<path d="M12 21.83C11.827 21.83 11.655 21.785 11.5 21.696L3.85303 17.281C3.54303 17.102 3.35303 16.772 3.35303 16.415V7.585C3.35303 7.228 3.54303 6.897 3.85303 6.719L11.5 2.304C11.81 2.125 12.19 2.125 12.5 2.304L20.147 6.72C20.457 6.899 20.647 7.229 20.647 7.586V16.416C20.647 16.773 20.457 17.104 20.147 17.282L12.5 21.697C12.345 21.786 12.173 21.83 12 21.83ZM5.35303 15.838L12 19.676L18.647 15.838V8.162L12 4.325L5.35303 8.162V15.838Z" fill="white"/>
</svg>
