<svg id="Layer_1" data-name="Layer 1" xmlns="http://www.w3.org/2000/svg" viewBox="0 0 24 24"><defs><style>.cls-1{fill:none;}.cls-2{fill:#666;}.cls-3{fill:#333;}</style></defs><g id="Group_394" data-name="Group 394"><g id="frame-2"><rect id="Rectangle_364" data-name="Rectangle 364" class="cls-1" width="24" height="24"/></g><g id="icons-2"><path id="Path_473" data-name="Path 473" class="cls-1" d="M0,0H24V24H0Z"/><path id="Path_474" data-name="Path 474" class="cls-2" d="M16.09,14.46h1.64V7.91a1.66,1.66,0,0,0-1.64-1.64H9.55V7.91h6.54ZM7.91,16.09V3H6.27V6.27H3V7.91H6.27v8.18a1.66,1.66,0,0,0,1.64,1.64h8.18V21h1.64V17.73H21V16.09Z"/><g id="Group_393" data-name="Group 393"><path id="Path_475" data-name="Path 475" class="cls-2" d="M10.85,9,12,10.88,13.2,9h1.35l-1.82,2.89L14.67,15H13.24L12,13l-1.28,2H9.33l1.95-3.06L9.44,9Z"/></g></g><g id="more"><path id="Path_476" data-name="Path 476" class="cls-3" d="M24,24V20l-4,4Z"/></g></g></svg>