<svg id="Layer_1" data-name="Layer 1" xmlns="http://www.w3.org/2000/svg" viewBox="0 0 24 24"><defs><style>.cls-1{fill:none;}.cls-2{fill:#333;}.cls-3{fill:#666;}</style></defs><g id="Group_37" data-name="Group 37"><g id="Group_36" data-name="Group 36"><g id="frame-5"><rect id="Rectangle_29" data-name="Rectangle 29" class="cls-1" width="24" height="24"/></g><g id="icons-3"><path id="Path_122" data-name="Path 122" class="cls-1" d="M0,.1H23.9V24H0Z"/></g><g id="more-4"><path id="Path_123" data-name="Path 123" class="cls-2" d="M24,24V20l-4,4Z"/></g><g id="_06-views" data-name=" 06-views"><path id="Path_124" data-name="Path 124" class="cls-3" d="M14.94,8.07v8H5v-8h10m1-2H4a1,1,0,0,0-1,1V17a1,1,0,0,0,1,1h12a1,1,0,0,0,1-1h0V13.55l4,4v-11l-4,4V7.07a1,1,0,0,0-1-1h0Z"/></g></g></g></svg>