<?xml version="1.0" encoding="UTF-8"?>
<svg id="Layer_1" xmlns="http://www.w3.org/2000/svg" version="1.1" viewBox="0 0 24 24">
  <!-- Generator: Adobe Illustrator 29.3.0, SVG Export Plug-In . SVG Version: 2.1.0 Build 146)  -->
  <defs>
    <style>
      .st0 {
        fill: #fff;
      }
    </style>
  </defs>
  <path class="st0" d="M12,4c4.4,0,8,3.6,8,8s-3.6,8-8,8-8-3.6-8-8S7.6,4,12,4M12,2C6.5,2,2,6.5,2,12s4.5,10,10,10,10-4.5,10-10S17.5,2,12,2h0Z"/>
  <path class="st0" d="M11.9,6c-1.6.4-3.1,1.3-5.1,3.5s-1.6,4.2-1.6,4.2c0,0,.5-1.3,1.9-2.7.6-.6,1.1-.9,1.4-.9s.5.2.5.5v4.6c0,.5-.3.6-.6.6h-.4c1.4,2,4.6,2.2,4.6,2.2l1.4-1.5h0l1.3,1.1c2.4-1.4,3.5-4,3.5-4-1.1,1.1-1.7,1.4-2.1,1.4s-.5-.2-.5-.2v-5.8c.4-.8,1.7-2.3,1.7-2.3-2.5.5-3.8,2.1-3.8,2.1-.4-.3-1.2-.3-1.2-.3.4.2.8.8.8,1.3v4.9s-.8.7-1.5.7-.6-.2-.7-.4c0,0,0-.1-.1-.2v-6.1s-.2.1-.3.1-.3,0-.4-.3c0-.1-.1-.4-.1-.7,0-1.1,1.3-1.9,1.3-1.9h0Z"/>
</svg>