<svg id="Layer_1" data-name="Layer 1" xmlns="http://www.w3.org/2000/svg" viewBox="0 0 24 24"><defs><style>.cls-1{fill:none;}.cls-2{fill:#666;}</style></defs><g id="Group_370" data-name="Group 370"><rect id="Rectangle_354" data-name="Rectangle 354" class="cls-1" width="24" height="24"/><g id="Group_369" data-name="Group 369"><path id="Path_447" data-name="Path 447" class="cls-2" d="M20,3H4A2,2,0,0,0,2,5V16a2,2,0,0,0,2,2H7L6,19v2H18V19l-1-1h3a2,2,0,0,0,2-2V5A2,2,0,0,0,20,3Zm0,13H4V5H20Z"/><g id="Group_368" data-name="Group 368"><path id="Path_448" data-name="Path 448" class="cls-2" d="M6.23,13C8.71,10.8,9.14,10,9.14,9.2a1,1,0,0,0-1-1h0a2.88,2.88,0,0,0-1.46.42l-.48-1a3.82,3.82,0,0,1,2-.57,2.16,2.16,0,0,1,2.39,1.91,2.45,2.45,0,0,1,0,.27c0,1.26-.86,2.35-2.28,3.68h2.35V14H6.22Z"/><path id="Path_449" data-name="Path 449" class="cls-2" d="M11.9,7.1h2.5a3.19,3.19,0,0,1,3.4,3,2.67,2.67,0,0,1,0,.49A3.19,3.19,0,0,1,14.88,14a2.57,2.57,0,0,1-.48,0H11.9Zm2.39,5.69c1.52,0,2-1.08,2-2.22s-.48-2.23-2-2.23h-1v4.45Z"/></g></g></g></svg>