<svg width="24" height="24" viewBox="0 0 24 24" fill="none" xmlns="http://www.w3.org/2000/svg">
<path d="M14.8 17L18.4493 22.2133C18.6077 22.4395 18.5526 22.7513 18.3264 22.9096C18.2424 22.9684 18.1423 23 18.0397 23L5.9603 23C5.6842 23 5.4603 22.7761 5.4603 22.5C5.4603 22.3974 5.4919 22.2973 5.5507 22.2133L9.2 17L5 17C4.4477 17 4 16.5523 4 16L4 2C4 1.44772 4.4477 1 5 1L19 1C19.5523 1 20 1.44772 20 2L20 16C20 16.5523 19.5523 17 19 17L14.8 17ZM11.6413 17L8.8413 21L15.1587 21L12.3587 17L11.6413 17ZM18 3L6 3L6 15L18 15L18 3Z" fill="white"/>
</svg>
