<svg width="24" height="24" viewBox="0 0 24 24" fill="none" xmlns="http://www.w3.org/2000/svg">
<path d="M20.8201 2.17999H3.18005C2.63005 2.17999 2.18005 2.62999 2.18005 3.17999V20.82C2.18005 21.37 2.63005 21.82 3.18005 21.82H20.8201C21.3701 21.82 21.8201 21.37 21.8201 20.82V3.17999C21.8201 2.62999 21.3701 2.17999 20.8201 2.17999ZM10.0601 13.94V10.06H13.9401V13.94H10.0601ZM13.9401 15.94V19.82H10.0601V15.94H13.9401ZM4.18005 10.06H8.06005V13.94H4.18005V10.06ZM10.0601 8.05999V4.17999H13.9401V8.05999H10.0601ZM15.9401 10.06H19.8201V13.94H15.9401V10.06ZM19.8201 8.05999H15.9401V4.17999H19.8201V8.05999ZM8.06005 4.17999V8.05999H4.18005V4.17999H8.06005ZM4.18005 15.94H8.06005V19.82H4.18005V15.94ZM15.9401 19.82V15.94H19.8201V19.82H15.9401Z" fill="white"/>
</svg>
