<svg width="24" height="24" viewBox="0 0 24 24" fill="none" xmlns="http://www.w3.org/2000/svg">
<path d="M12 16.498C10.847 16.498 9.69498 16.06 8.81698 15.183C7.06198 13.428 7.06198 10.573 8.81698 8.818C10.572 7.063 13.428 7.063 15.182 8.818C16.936 10.573 16.936 13.428 15.182 15.183C14.304 16.059 13.152 16.498 12 16.498ZM12 9.5C11.359 9.5 10.719 9.744 10.231 10.231C9.25598 11.206 9.25598 12.793 10.231 13.768C11.207 14.744 12.794 14.743 13.768 13.768C14.743 12.793 14.742 11.206 13.768 10.231C13.281 9.744 12.64 9.5 12 9.5Z" fill="white"/>
<path d="M20.821 9.5C20.268 9.5 19.821 9.052 19.821 8.5V4.179H15.5C14.947 4.179 14.5 3.731 14.5 3.179C14.5 2.627 14.947 2.179 15.5 2.179H20.821C21.374 2.179 21.821 2.627 21.821 3.179V8.5C21.821 9.052 21.374 9.5 20.821 9.5Z" fill="white"/>
<path d="M8.49996 21.821H3.17896C2.62696 21.821 2.17896 21.374 2.17896 20.821V15.5C2.17896 14.947 2.62696 14.5 3.17896 14.5C3.73096 14.5 4.17896 14.947 4.17896 15.5V19.821H8.49996C9.05196 19.821 9.49996 20.268 9.49996 20.821C9.49996 21.374 9.05196 21.821 8.49996 21.821Z" fill="white"/>
<path d="M3.17896 9.5C2.62696 9.5 2.17896 9.052 2.17896 8.5V3.179C2.17896 2.627 2.62696 2.179 3.17896 2.179H8.49996C9.05196 2.179 9.49996 2.627 9.49996 3.179C9.49996 3.731 9.05196 4.179 8.49996 4.179H4.17896V8.5C4.17896 9.052 3.73096 9.5 3.17896 9.5Z" fill="white"/>
<path d="M20.821 21.821H15.5C14.947 21.821 14.5 21.374 14.5 20.821C14.5 20.268 14.947 19.821 15.5 19.821H19.821V15.5C19.821 14.947 20.268 14.5 20.821 14.5C21.374 14.5 21.821 14.947 21.821 15.5V20.821C21.821 21.374 21.374 21.821 20.821 21.821Z" fill="white"/>
</svg>
