<svg width="24" height="24" viewBox="0 0 24 24" fill="none" xmlns="http://www.w3.org/2000/svg">
<path d="M5.46802 19.428H18.556C19.109 19.428 19.556 18.981 19.556 18.428V13.63C19.556 13.077 19.109 12.63 18.556 12.63H5.46802C4.91602 12.63 4.46802 13.077 4.46802 13.63V18.428C4.46802 18.98 4.91602 19.428 5.46802 19.428ZM6.46802 14.63H7.46602V15.553C7.46602 15.829 7.69002 16.053 7.96602 16.053C8.24202 16.053 8.46602 15.829 8.46602 15.553V14.63H9.48402V15.553C9.48402 15.829 9.70802 16.053 9.98402 16.053C10.26 16.053 10.484 15.829 10.484 15.553V14.63H11.502V15.553C11.502 15.829 11.726 16.053 12.002 16.053C12.278 16.053 12.502 15.829 12.502 15.553V14.63H13.52V15.553C13.52 15.829 13.744 16.053 14.02 16.053C14.296 16.053 14.52 15.829 14.52 15.553V14.63H15.539V15.553C15.539 15.829 15.763 16.053 16.039 16.053C16.315 16.053 16.539 15.829 16.539 15.553V14.63H17.557V17.428H6.46802V14.63Z" fill="white"/>
<path d="M21.283 20.769L3.22604 20.779L3.21704 2.72099C3.21704 2.44499 2.99304 2.22099 2.71704 2.22099C2.44104 2.22099 2.21704 2.44499 2.21704 2.72099L2.22704 21.277C2.22704 21.553 2.45104 21.777 2.72704 21.777L21.283 21.767C21.559 21.767 21.783 21.542 21.783 21.267C21.783 20.992 21.56 20.769 21.283 20.769Z" fill="white"/>
</svg>
