<svg width="24" height="24" viewBox="0 0 24 24" fill="none" xmlns="http://www.w3.org/2000/svg">
<mask id="path-1-inside-1_5245_1865" fill="white">
<path d="M18.2554 16.8322C17.8473 18.1806 17.0957 19.3996 16.0743 20.3698C15.0529 21.34 13.7968 22.0279 12.4293 22.3661C11.0617 22.7043 9.62976 22.6811 8.27389 22.2988C6.91803 21.9166 5.68485 21.1883 4.69537 20.1856C3.7059 19.1829 2.99414 17.9401 2.62994 16.5793C2.26574 15.2185 2.26161 13.7863 2.61797 12.4234C2.97432 11.0605 3.67891 9.81364 4.66259 8.80523C5.64627 7.79682 6.87524 7.0615 8.22888 6.67142L8.58035 7.89108C7.43817 8.22022 6.4012 8.84068 5.57119 9.69155C4.74118 10.5424 4.14667 11.5945 3.84598 12.7445C3.5453 13.8945 3.54878 15.1029 3.85608 16.2511C4.16339 17.3994 4.76396 18.448 5.59885 19.2941C6.43375 20.1401 7.47428 20.7546 8.61833 21.0772C9.76239 21.3997 10.9706 21.4193 12.1245 21.1339C13.2784 20.8486 14.3383 20.2681 15.2002 19.4495C16.062 18.6309 16.6962 17.6023 17.0405 16.4646L18.2554 16.8322Z"/>
</mask>
<path d="M18.2554 16.8322C17.8473 18.1806 17.0957 19.3996 16.0743 20.3698C15.0529 21.34 13.7968 22.0279 12.4293 22.3661C11.0617 22.7043 9.62976 22.6811 8.27389 22.2988C6.91803 21.9166 5.68485 21.1883 4.69537 20.1856C3.7059 19.1829 2.99414 17.9401 2.62994 16.5793C2.26574 15.2185 2.26161 13.7863 2.61797 12.4234C2.97432 11.0605 3.67891 9.81364 4.66259 8.80523C5.64627 7.79682 6.87524 7.0615 8.22888 6.67142L8.58035 7.89108C7.43817 8.22022 6.4012 8.84068 5.57119 9.69155C4.74118 10.5424 4.14667 11.5945 3.84598 12.7445C3.5453 13.8945 3.54878 15.1029 3.85608 16.2511C4.16339 17.3994 4.76396 18.448 5.59885 19.2941C6.43375 20.1401 7.47428 20.7546 8.61833 21.0772C9.76239 21.3997 10.9706 21.4193 12.1245 21.1339C13.2784 20.8486 14.3383 20.2681 15.2002 19.4495C16.062 18.6309 16.6962 17.6023 17.0405 16.4646L18.2554 16.8322Z" stroke="black" stroke-width="2.5" stroke-dasharray="2.5 2.5" mask="url(#path-1-inside-1_5245_1865)"/>
<circle cx="15.125" cy="9.125" r="7" stroke="black" stroke-width="2.25"/>
</svg>
