<svg width="24" height="24" viewBox="0 0 24 24" fill="none" xmlns="http://www.w3.org/2000/svg">
<path d="M11.635 20.199L4.71802 16.205V8.217L11.635 12.211V20.199Z" fill="white" fill-opacity="0.1"/>
<path d="M12.3279 20.199L19.2449 16.205V8.217L12.3279 12.211V20.199Z" fill="white" fill-opacity="0.3"/>
<path d="M11.9999 11.606L5.03491 7.585L11.9999 3.564L18.9649 7.585L11.9999 11.606Z" fill="white" fill-opacity="0.7"/>
<path d="M20.637 7.507C20.635 7.476 20.63 7.447 20.625 7.416C20.605 7.3 20.572 7.187 20.514 7.086C20.455 6.984 20.373 6.897 20.281 6.821C20.258 6.802 20.236 6.785 20.212 6.768C20.19 6.753 20.172 6.733 20.148 6.719L12.5 2.303C12.19 2.124 11.81 2.124 11.5 2.303L3.85303 6.719C3.82903 6.732 3.81103 6.753 3.78903 6.768C3.76403 6.785 3.74203 6.803 3.71903 6.822C3.62703 6.898 3.54503 6.983 3.48703 7.085C3.42803 7.186 3.39503 7.3 3.37503 7.417C3.37003 7.447 3.36603 7.476 3.36303 7.506C3.36103 7.533 3.35303 7.558 3.35303 7.585V16.416C3.35303 16.773 3.54303 17.104 3.85303 17.282L11.5 21.697C11.524 21.711 11.55 21.716 11.574 21.728C11.601 21.741 11.628 21.751 11.656 21.762C11.768 21.803 11.882 21.831 12 21.831C12.117 21.831 12.232 21.803 12.344 21.762C12.372 21.752 12.399 21.741 12.426 21.728C12.45 21.716 12.477 21.711 12.5 21.697L20.147 17.282C20.457 17.103 20.647 16.773 20.647 16.416V7.585C20.647 7.558 20.639 7.534 20.637 7.507ZM12 4.324L17.647 7.585L12 10.845L6.35303 7.585L12 4.324ZM5.35303 9.317L11 12.578V19.099L5.35303 15.838V9.317ZM13 19.099V12.578L18.647 9.317V15.838L13 19.099Z" fill="white"/>
</svg>
